    <svg version="1.1" id="logo-front" xmlns="http://www.w3.org/2000/svg" xmlns:xlink="http://www.w3.org/1999/xlink"
      x="0px" y="0px" viewBox="0 0 212.5 196.2" style="enable-background:new 0 0 212.5 196.2;" xml:space="preserve">
      <style type="text/css">
      </style>
      <g id="Website">
        <g id="Home" transform="translate(-60.000000, -26.000000)">
          <path id="Shape_2_" class="st1" d="M233.9,131.4c3.4,0,6.4-3,6.4-6.4V88.8c0-16.6-13.6-29.8-29.8-29.8h-85.2
          c-16.6,0-29.8,13.6-29.8,29.8v71.3c0,16.6,13.6,29.8,29.8,29.8h98.8c9.8,0,18.1,8.3,18.1,18.1l0,0c0,0.8-0.8,1.1-1.1,1.1H125.3
          c-27.2,0.4-49-21.5-49-48.7V89.2c0-27.2,21.9-49,49-49h85.2c27.2,0,49,21.9,49,49v38.5v3c0,14-11.3,25.6-25.6,25.6h-49.8
          c-0.8,0-1.1,0.8-1.1,1.1v21.1c0,0.8-0.8,1.1-1.1,1.1h-2.6c-15.8,0-19.2-9.4-19.2-20.7v-2.6c0-0.8-0.8-1.1-1.1-1.1H143
          c-0.8,0-1.1,0.8-1.1,1.1v21.1c0,0.8-0.4,1.1-1.1,1.1l-8.3,0.4c-8.7,0-14.7-7.5-14.7-16.2v-60.4c0-0.8,0.8-1.1,1.1-1.1h4.5
          c9.4,0,17,7.9,17,17V131c0,0.8,0.8,1.1,1.1,1.1h17c0.8,0,1.1-0.8,1.1-1.1v-30.9c0-0.8,0.8-1.1,1.1-1.1h5.7c9.4,0,17,7.9,17,17
          v16.2L233.9,131.4z" />
        </g>
      </g>
    </svg>