<?xml version="1.0" encoding="utf-8"?>
<!-- Generator: Adobe Illustrator 22.0.1, SVG Export Plug-In . SVG Version: 6.00 Build 0)  -->
<svg version="1.1" id="Layer_1" xmlns="http://www.w3.org/2000/svg" xmlns:xlink="http://www.w3.org/1999/xlink" x="0px" y="0px"
	 viewBox="0 0 52 48" style="enable-background:new 0 0 52 48;" xml:space="preserve">
<style type="text/css">
	.st0{fill:#5000FF;}
</style>
<title>Shape</title>
<desc>Created with Sketch.</desc>
<g id="Website">
	<g id="Home" transform="translate(-60.000000, -26.000000)">
		<path id="Shape_2_" class="st0" d="M103.5,51.8c0.9,0,1.7-0.8,1.7-1.7v-9.6c0-4.4-3.6-7.9-7.9-7.9H74.7c-4.4,0-7.9,3.6-7.9,7.9
			v18.9c0,4.4,3.6,7.9,7.9,7.9h26.2c2.6,0,4.8,2.2,4.8,4.8l0,0c0,0.2-0.2,0.3-0.3,0.3H74.7c-7.2,0.1-13-5.7-13-12.9V40.6
			c0-7.2,5.8-13,13-13h22.6c7.2,0,13,5.8,13,13v10.2v0.8c0,3.7-3,6.8-6.8,6.8H90.3c-0.2,0-0.3,0.2-0.3,0.3v5.6
			c0,0.2-0.2,0.3-0.3,0.3h-0.7c-4.2,0-5.1-2.5-5.1-5.5v-0.7c0-0.2-0.2-0.3-0.3-0.3h-4.2c-0.2,0-0.3,0.2-0.3,0.3v5.6
			c0,0.2-0.1,0.3-0.3,0.3l-2.2,0.1c-2.3,0-3.9-2-3.9-4.3v-16c0-0.2,0.2-0.3,0.3-0.3h1.2c2.5,0,4.5,2.1,4.5,4.5v3.4
			c0,0.2,0.2,0.3,0.3,0.3h4.5c0.2,0,0.3-0.2,0.3-0.3v-8.2c0-0.2,0.2-0.3,0.3-0.3h1.5c2.5,0,4.5,2.1,4.5,4.5V52L103.5,51.8z"/>
	</g>
</g>
</svg>
